<svg width="46" height="24" viewBox="0 0 46 24" fill="none" xmlns="http://www.w3.org/2000/svg">
<rect width="46" height="24" rx="12" fill="#FC5F7E"/>
<path d="M14 6.99519C14 6.44556 14.4456 6 14.9952 6H23.0048C23.5544 6 24 6.44556 24 6.99519C24 7.54482 23.5544 7.99039 23.0048 7.99039H14.9952C14.4456 7.99039 14 7.54482 14 6.99519Z" fill="white"/>
<path d="M14 11.9998C14 11.4501 14.4456 11.0046 14.9952 11.0046H33.0048C33.5544 11.0046 34 11.4501 34 11.9998C34 12.5494 33.5544 12.9949 33.0048 12.9949H14.9952C14.4456 12.9949 14 12.5494 14 11.9998Z" fill="white"/>
<path d="M14.9952 16.0096C14.4456 16.0096 14 16.4552 14 17.0048C14 17.5544 14.4456 18 14.9952 18H27.0048C27.5544 18 28 17.5544 28 17.0048C28 16.4552 27.5544 16.0096 27.0048 16.0096H14.9952Z" fill="white"/>
</svg>
