<svg width="46" height="24" viewBox="0 0 46 24" fill="none" xmlns="http://www.w3.org/2000/svg">
<rect width="46" height="24" rx="12" fill="white"/>
<path d="M16.9288 19.0708C16.5402 18.6821 16.5402 18.052 16.9288 17.6634L29.6635 4.92864C30.0522 4.53999 30.6823 4.53999 31.0709 4.92864C31.4596 5.31728 31.4596 5.94741 31.0709 6.33605L18.3362 19.0708C17.9476 19.4594 17.3175 19.4594 16.9288 19.0708Z" fill="#FC5F7E"/>
<path d="M31.0712 19.0708C31.4598 18.6821 31.4598 18.052 31.0712 17.6634L18.3365 4.92864C17.9478 4.53999 17.3177 4.53999 16.9291 4.92864C16.5404 5.31728 16.5404 5.94741 16.9291 6.33605L29.6638 19.0708C30.0524 19.4594 30.6825 19.4594 31.0712 19.0708Z" fill="#FC5F7E"/>
</svg>
